<svg xmlns="http://www.w3.org/2000/svg" viewBox="0 0 36 36" role="img" aria-label="WhatsApp">
  <circle cx="18" cy="18" r="18" fill="#25D366"/>
  <path fill="#fff" d="M18.1 8.2c-5.3 0-9.6 4.3-9.6 9.6 0 1.7.4 3.3 1.3 4.7L8 28l5.6-1.8c1.4.8 2.9 1.2 4.5 1.2 5.3 0 9.6-4.3 9.6-9.6S23.4 8.2 18.1 8.2zm0 17.5c-1.4 0-2.8-.4-4-1.1l-.3-.2-3.3 1.1 1.1-3.2-.2-.3c-.8-1.3-1.2-2.7-1.2-4.2 0-4.4 3.6-8 8-8s8 3.6 8 8-3.6 7.9-8.1 7.9zm4.4-6c-.2-.1-1.4-.7-1.6-.8s-.4-.1-.5.1-.6.8-.8 1-.3.2-.5.1c-.2-.1-.9-.3-1.8-1.1-1.1-.9-1.4-1.6-1.6-1.9-.2-.3 0-.4.1-.6l.4-.5.2-.3c.1-.1 0-.3 0-.4l-.8-1.9c-.2-.5-.4-.4-.5-.4h-.4c-.2 0-.4.1-.6.3s-.8.8-.8 1.9.8 2.2.9 2.4c.1.2 1.6 2.5 3.9 3.4 1.4.5 1.8.5 2.5.4.4-.1 1.4-.6 1.6-1.1.2-.5.2-1 .1-1.1 0-.1-.2-.1-.4-.2z"/>
</svg>
